{
.appVersion = "998";
classes = (
{
code = "u10333 u10334 u10335 u10337 u1033D u1033E u1033F u10340 u10341";
name = ccmp1;
}
);
copyright = "Copyright 2017 Google Inc. All Rights Reserved.";
customParameters = (
{
name = glyphOrder;
value = (
.notdef,
NULL,
CR,
space,
dieresis,
macron,
uni0304,
uni0305,
uni0308,
uni0331,
u10330,
u10331,
u10332,
u10333,
u10334,
u10335,
u10336,
u10337,
u10338,
u10339,
u1033A,
u1033B,
u1033C,
u1033D,
u1033E,
u1033F,
u10340,
u10341,
u10342,
u10343,
u10344,
u10345,
u10346,
u10347,
u10348,
u10349,
u1034A,
u10339.dieresis,
g38,
g39,
uni0305.alt1,
uni0305.alt2,
uni0305.alt3,
uni00A0
);
},
{
name = description;
value = "Designed by Monotype design team.";
},
{
name = license;
value = "This Font Software is licensed under the SIL Open Font License, Version 1.1. This Font Software is distributed on an \"AS IS\" BASIS, WITHOUT WARRANTIES OR CONDITIONS OF ANY KIND, either express or implied. See the SIL Open Font License for the specific language, permissions and limitations governing your use of this Font Software.";
},
{
name = licenseURL;
value = "http://scripts.sil.org/OFL";
},
{
name = vendorID;
value = GOOG;
},
{
name = unicodeRanges;
value = (
0,
1,
6,
57,
86
);
},
{
name = trademark;
value = "Noto is a trademark of Google Inc.";
},
{
name = "Has WWS Names";
value = 1;
},
{
name = versionString;
value = "Version 2.000";
},
{
name = fsType;
value = (
);
},
{
name = codePageRanges;
value = (
"1252"
);
}
);
date = "2017-02-09 21:08:47 +0000";
designer = "Monotype Design Team";
designerURL = "http://www.monotype.com/studio";
disablesAutomaticAlignment = 1;
disablesNiceNames = 1;
familyName = "Noto Sans Gothic";
featurePrefixes = (
{
code = "languagesystem DFLT dflt;\012languagesystem goth dflt;";
name = Languagesystems;
}
);
features = (
{

glyphs = (
{
glyphname = .notdef;
lastChange = "2017-03-01 17:35:28 +0000";
layers = (
{
layerId = UUID0;
paths = (
{
closed = 1;
nodes = (
"505 0 LINE",
"505 714 LINE",
"94 714 LINE",
"94 0 LINE"
);
},
{
closed = 1;
nodes = (
"145 663 LINE",
"454 663 LINE",
"454 51 LINE",
"145 51 LINE"
);
}
);
width = 600;
}
);
},
{
glyphname = uni0304;
lastChange = "2017-03-01 17:35:28 +0000";
layers = (
{
anchors = (
{
name = _top;
position = "{-323, 606}";
}
);
layerId = UUID0;
paths = (
{
closed = 1;
nodes = (
"-176 606 LINE",
"-176 677 LINE",
"-473 677 LINE",
"-473 606 LINE"
);
}
);
width = 0;
}
);
unicode = 0304;
},
{
glyphname = uni0305;
lastChange = "2017-03-01 17:35:28 +0000";
layers = (
{
anchors = (
{
name = _bottomleft;
position = "{0, 0}";
}
);
layerId = UUID0;
paths = (
{
closed = 1;
nodes = (
"659 904 LINE",
"659 975 LINE",
"-5 975 LINE",
"-5 904 LINE"
);
}
);
width = 0;
}
);
unicode = 0305;
},
{
glyphname = uni0308;
lastChange = "2017-03-01 17:35:28 +0000";
layers = (
{
layerId = UUID0;
paths = (
{
closed = 1;
nodes = (
"-198 631 OFFCURVE",
"-176 647 OFFCURVE",
"-176 681 CURVE SMOOTH",
"-176 716 OFFCURVE",
"-198 730 OFFCURVE",
"-223 730 CURVE SMOOTH",
"-249 730 OFFCURVE",
"-270 716 OFFCURVE",
"-270 681 CURVE SMOOTH",
"-270 647 OFFCURVE",
"-249 631 OFFCURVE",
"-223 631 CURVE SMOOTH"
);
},
{
closed = 1;
nodes = (
"-11 631 OFFCURVE",
"11 647 OFFCURVE",
"11 681 CURVE SMOOTH",
"11 716 OFFCURVE",
"-11 730 OFFCURVE",
"-36 730 CURVE SMOOTH",
"-61 730 OFFCURVE",
"-82 716 OFFCURVE",
"-82 681 CURVE SMOOTH",
"-82 647 OFFCURVE",
"-61 631 OFFCURVE",
"-36 631 CURVE SMOOTH"
);
}
);
width = 0;
}
);
unicode = 0308;
},
{
glyphname = uni0331;
lastChange = "2017-03-01 17:35:28 +0000";
layers = (
{
anchors = (
{
name = _bottom;
position = "{0, 0}";
}
);
layerId = UUID0;
paths = (
{
closed = 1;
nodes = (
"149 -147 LINE",
"149 -76 LINE",
"-148 -76 LINE",
"-148 -147 LINE"
);
}
);
width = 0;
}
);
unicode = 0331;
},
{
glyphname = u10330;
lastChange = "2017-03-01 17:35:28 +0000";
layers = (
{
anchors = (
{
name = bottom;
position = "{400, 0}";
},
{
name = bottomleft;
position = "{0, 0}";
},
{
name = top;
position = "{317, 732}";
}
);
layerId = UUID0;
paths = (
{
closed = 1;
nodes = (
"193 -148 LINE",
"193 207 LINE SMOOTH",
"193 296 OFFCURVE",
"209 368 OFFCURVE",
"242 418 CURVE",
"508 0 LINE",
"613 0 LINE",
"199 646 LINE",
"95 646 LINE",
"233 432 LINE",
"151 432 LINE",
"120 383 OFFCURVE",
"103 310 OFFCURVE",
"103 216 CURVE SMOOTH",
"103 -188 LINE"
);
}
);
width = 609;
}
);
unicode = 10330;
},
{
glyphname = u10331;
lastChange = "2017-03-01 17:35:28 +0000";
layers = (
{
anchors = (
{
name = bottom;
position = "{273, 0}";
},
{
name = bottomleft;
position = "{0, 0}";
},
{
name = top;
position = "{258, 732}";
}
);
layerId = UUID0;
paths = (
{
closed = 1;
nodes = (
"286 0 LINE SMOOTH",
"445 0 OFFCURVE",
"580 66 OFFCURVE",
"580 207 CURVE SMOOTH",
"580 313 OFFCURVE",
"488 371 OFFCURVE",
"356 380 CURVE",
"356 384 LINE",
"425 411 OFFCURVE",
"482 451 OFFCURVE",
"482 534 CURVE SMOOTH",
"482 608 OFFCURVE",
"429 652 OFFCURVE",
"358 673 CURVE",
"322 609 LINE",
"362 594 OFFCURVE",
"389 564 OFFCURVE",
"389 522 CURVE SMOOTH",
"389 464 OFFCURVE",
"344 432 OFFCURVE",
"253 404 CURVE",
"253 336 LINE",
"426 324 OFFCURVE",
"487 275 OFFCURVE",
"487 201 CURVE SMOOTH",
"487 145 OFFCURVE",
"444 76 OFFCURVE",
"269 76 CURVE SMOOTH",
"187 76 LINE",
"187 646 LINE",
"97 646 LINE",
"97 0 LINE"
);
}
);
width = 631;
}
);
unicode = 10331;
},
{
glyphname = u10332;
lastChange = "2017-03-01 17:35:28 +0000";
layers = (
{
anchors = (
{
name = bottom;
position = "{302, 0}";
},
{
name = bottomleft;
position = "{0, 0}";
},
{
name = top;
position = "{302, 732}";
}
);
layerId = UUID0;
paths = (
{
closed = 1;
nodes = (
"187 0 LINE",
"187 566 LINE",
"500 566 LINE",
"500 646 LINE",
"97 646 LINE",
"97 0 LINE"
);
}
);
width = 524;
}
);
unicode = 10332;
},
{
glyphname = u10333;
lastChange = "2017-03-01 17:35:28 +0000";
layers = (
{
anchors = (
{
name = bottom;
position = "{263, 0}";
},
{
name = bottomleft;
position = "{0, 0}";
},
{
name = top;
position = "{292, 732}";
}
);
layerId = UUID0;
paths = (
{
closed = 1;
nodes = (
"387 -10 OFFCURVE",
"466 69 OFFCURVE",
"478 171 CURVE",
"587 0 LINE",
"693 0 LINE",
"278 646 LINE",
"173 646 LINE",
"356 362 LINE SMOOTH",
"388 313 OFFCURVE",
"405 269 OFFCURVE",
"405 211 CURVE SMOOTH",
"405 141 OFFCURVE",
"364 66 OFFCURVE",
"267 66 CURVE SMOOTH",
"182 66 OFFCURVE",
"138 124 OFFCURVE",
"138 203 CURVE SMOOTH",
"138 260 OFFCURVE",
"167 307 OFFCURVE",
"194 333 CURVE",
"95 333 LINE",
"65 298 OFFCURVE",
"45 251 OFFCURVE",
"45 192 CURVE SMOOTH",
"45 80 OFFCURVE",
"115 -10 OFFCURVE",
"260 -10 CURVE SMOOTH"
);
}
);
width = 689;
}
);
unicode = 10333;
},
{
glyphname = u10334;
lastChange = "2017-03-01 17:35:28 +0000";
layers = (
{
anchors = (
{
name = bottom;
position = "{371, 0}";
},
{
name = bottomleft;
position = "{0, 0}";
},
{
name = top;
position = "{371, 732}";
}
);
layerId = UUID0;
paths = (
{
closed = 1;
nodes = (
"480 -10 OFFCURVE",
"574 25 OFFCURVE",
"642 105 CURVE",
"593 161 LINE",
"538 102 OFFCURVE",
"472 69 OFFCURVE",
"386 69 CURVE SMOOTH",
"250 69 OFFCURVE",
"162 155 OFFCURVE",
"156 291 CURVE",
"586 291 LINE",
"586 369 LINE",
"158 369 LINE",
"173 504 OFFCURVE",
"271 575 OFFCURVE",
"392 575 CURVE SMOOTH",
"480 575 OFFCURVE",
"543 541 OFFCURVE",
"587 497 CURVE",
"637 563 LINE",
"594 608 OFFCURVE",
"516 655 OFFCURVE",
"397 655 CURVE SMOOTH",
"206 655 OFFCURVE",
"61 531 OFFCURVE",
"61 316 CURVE SMOOTH",
"61 125 OFFCURVE",
"177 -10 OFFCURVE",
"381 -10 CURVE SMOOTH"
);
}
);
width = 667;
}
);
unicode = 10334;
},
{
glyphname = u10335;
lastChange = "2017-03-01 17:35:28 +0000";
layers = (
{
anchors = (
{
name = bottom;
position = "{400, 0}";
},
{
name = bottomleft;
position = "{0, 0}";
},
{
name = top;
position = "{370, 732}";
}
);
layerId = UUID0;
paths = (
{
closed = 1;
nodes = (
"490 -10 OFFCURVE",
"586 6 OFFCURVE",
"644 22 CURVE",
"644 646 LINE",
"554 646 LINE",
"554 83 LINE",
"521 75 OFFCURVE",
"462 68 OFFCURVE",
"396 68 CURVE SMOOTH",
"265 68 OFFCURVE",
"184 117 OFFCURVE",
"184 275 CURVE SMOOTH",
"184 646 LINE",
"94 646 LINE",
"94 263 LINE SMOOTH",
"94 98 OFFCURVE",
"176 -10 OFFCURVE",
"396 -10 CURVE SMOOTH"
);
}
);
width = 741;
}
);
unicode = 10335;
},
{
glyphname = u10336;
lastChange = "2017-03-01 17:35:28 +0000";
layers = (
{
anchors = (
{
name = bottom;
position = "{317, 0}";
},
{
name = bottomleft;
position = "{0, 0}";
},
{
name = top;
position = "{292, 732}";
}
);
layerId = UUID0;
paths = (
{
closed = 1;
nodes = (
"597 0 LINE",
"597 80 LINE",
"156 80 LINE",
"543 578 LINE",
"543 646 LINE",
"30 646 LINE",
"30 566 LINE",
"435 566 LINE",
"48 68 LINE",
"48 0 LINE"
);
}
);
width = 622;
}
);
unicode = 10336;
},
{
glyphname = u10337;
lastChange = "2017-03-01 17:35:28 +0000";
layers = (
{
anchors = (
{
name = bottom;
position = "{371, 0}";
},
{
name = bottomleft;
position = "{0, 0}";
},
{
name = top;
position = "{390, 732}";
}
);
layerId = UUID0;
paths = (
{
closed = 1;
nodes = (
"187 0 LINE",
"187 559 LINE",
"220 567 OFFCURVE",
"269 574 OFFCURVE",
"326 574 CURVE SMOOTH",
"476 574 OFFCURVE",
"557 525 OFFCURVE",
"557 367 CURVE SMOOTH",
"557 0 LINE",
"647 0 LINE",
"647 379 LINE SMOOTH",
"647 544 OFFCURVE",
"565 652 OFFCURVE",
"334 652 CURVE SMOOTH",
"277 652 OFFCURVE",
"229 648 OFFCURVE",
"187 640 CURVE",
"187 834 LINE",
"97 834 LINE",
"97 0 LINE"
);
}
);
width = 741;
}
);
unicode = 10337;
},
{
glyphname = u10338;
lastChange = "2017-03-01 17:35:28 +0000";
layers = (
{
anchors = (
{
name = bottom;
position = "{449, -196}";
},
{
name = bottomleft;
position = "{0, 0}";
},
{
name = top;
position = "{449, 878}";
}
);
layerId = UUID0;
paths = (
{
closed = 1;
nodes = (
"495 -200 LINE",
"495 51 LINE",
"688 65 OFFCURVE",
"841 197 OFFCURVE",
"841 448 CURVE SMOOTH",
"841 518 OFFCURVE",
"821 606 OFFCURVE",
"799 646 CURVE",
"706 646 LINE",
"725 606 OFFCURVE",
"748 529 OFFCURVE",
"748 452 CURVE SMOOTH",
"748 246 OFFCURVE",
"635 146 OFFCURVE",
"495 133 CURVE",
"495 834 LINE",
"405 834 LINE",
"405 133 LINE",
"265 146 OFFCURVE",
"152 246 OFFCURVE",
"152 452 CURVE SMOOTH",
"152 523 OFFCURVE",
"176 606 OFFCURVE",
"195 646 CURVE",
"101 646 LINE",
"80 603 OFFCURVE",
"59 518 OFFCURVE",
"59 448 CURVE SMOOTH",
"59 197 OFFCURVE",
"212 65 OFFCURVE",
"405 51 CURVE",
"405 -240 LINE"
);
}
);
width = 898;
}
);
unicode = 10338;
},
{
glyphname = u10339;
lastChange = "2017-03-01 17:35:28 +0000";
layers = (
{
anchors = (
{
name = bottom;
position = "{136, 0}";
},
{
name = bottomleft;
position = "{0, 0}";
},
{
name = top;
position = "{136, 732}";
}
);
layerId = UUID0;
paths = (
{
closed = 1;
nodes = (
"187 0 LINE",
"187 646 LINE",
"97 646 LINE",
"97 0 LINE"
);
}
);
width = 284;
}
);
unicode = 10339;
},
{
glyphname = u1033A;
lastChange = "2017-03-01 17:35:28 +0000";
layers = (
{
anchors = (
{
name = bottom;
position = "{312, 0}";
},
{
name = bottomleft;
position = "{0, 0}";
},
{
name = top;
position = "{332, 732}";
}
);
layerId = UUID0;
paths = (
{
closed = 1;
nodes = (
"187 0 LINE",
"187 324 LINE",
"511 0 LINE",
"635 0 LINE",
"298 333 LINE",
"513 458 OFFCURVE",
"552 515 OFFCURVE",
"594 646 CURVE",
"499 646 LINE",
"466 553 OFFCURVE",
"447 499 OFFCURVE",
"187 352 CURVE",
"187 646 LINE",
"97 646 LINE",
"97 0 LINE"
);
}
);
width = 642;
}
);
unicode = 1033A;
},
{
glyphname = u1033B;
lastChange = "2017-03-01 17:35:28 +0000";
layers = (
{
anchors = (
{
name = bottom;
position = "{332, 0}";
},
{
name = bottomleft;
position = "{0, 0}";
},
{
name = top;
position = "{258, 732}";
}
);
layerId = UUID0;
paths = (
{
closed = 1;
nodes = (
"118 0 LINE",
"279 411 LINE",
"541 0 LINE",
"646 0 LINE",
"232 646 LINE",
"128 646 LINE",
"225 494 LINE",
"24 0 LINE"
);
}
);
width = 642;
}
);
unicode = 1033B;
},
{
glyphname = u1033C;
lastChange = "2017-03-01 17:35:28 +0000";
layers = (
{
anchors = (
{
name = bottom;
position = "{390, 0}";
},
{
name = bottomleft;
position = "{0, 0}";
},
{
name = top;
position = "{390, 732}";
}
);
layerId = UUID0;
paths = (
{
closed = 1;
nodes = (
"187 0 LINE",
"187 469 LINE",
"221 386 OFFCURVE",
"311 309 OFFCURVE",
"397 309 CURVE SMOOTH",
"492 309 OFFCURVE",
"577 390 OFFCURVE",
"613 469 CURVE",
"613 0 LINE",
"703 0 LINE",
"703 646 LINE",
"613 646 LINE",
"588 527 OFFCURVE",
"490 399 OFFCURVE",
"400 399 CURVE SMOOTH",
"302 399 OFFCURVE",
"209 536 OFFCURVE",
"187 646 CURVE",
"97 646 LINE",
"97 0 LINE"
);
}
);
width = 801;
}
);
unicode = 1033C;
},
{
glyphname = u1033D;
lastChange = "2017-03-01 17:35:28 +0000";
layers = (
{
anchors = (
{
name = bottom;
position = "{380, 0}";
},
{
name = bottomleft;
position = "{0, 0}";
},
{
name = top;
position = "{380, 732}";
}
);
layerId = UUID0;
paths = (
{
closed = 1;
nodes = (
"187 0 LINE",
"187 289 LINE SMOOTH",
"187 371 OFFCURVE",
"184 459 OFFCURVE",
"178 517 CURVE",
"182 517 LINE",
"573 0 LINE",
"663 0 LINE",
"663 646 LINE",
"573 646 LINE",
"573 329 LINE SMOOTH",
"573 253 OFFCURVE",
"576 180 OFFCURVE",
"581 131 CURVE",
"577 131 LINE",
"554 169 OFFCURVE",
"210 608 OFFCURVE",
"187 646 CURVE",
"97 646 LINE",
"97 0 LINE"
);
}
);
width = 760;
}
);
unicode = 1033D;
},
{
glyphname = u1033E;
lastChange = "2017-03-01 17:35:28 +0000";
layers = (
{
anchors = (
{
name = bottom;
position = "{292, 0}";
},
{
name = bottomleft;
position = "{0, 0}";
},
{
name = top;
position = "{380, 732}";
}
);
layerId = UUID0;
paths = (
{
closed = 1;
nodes = (
"513 -240 LINE",
"616 -139 OFFCURVE",
"656 -19 OFFCURVE",
"656 102 CURVE SMOOTH",
"656 141 OFFCURVE",
"649 190 OFFCURVE",
"644 209 CURVE",
"562 209 LINE",
"543 147 OFFCURVE",
"487 68 OFFCURVE",
"372 68 CURVE SMOOTH",
"250 68 OFFCURVE",
"155 151 OFFCURVE",
"155 318 CURVE SMOOTH",
"155 478 OFFCURVE",
"248 575 OFFCURVE",
"392 575 CURVE SMOOTH",
"487 575 OFFCURVE",
"547 541 OFFCURVE",
"596 495 CURVE",
"647 563 LINE",
"604 607 OFFCURVE",
"526 655 OFFCURVE",
"393 655 CURVE SMOOTH",
"194 655 OFFCURVE",
"61 523 OFFCURVE",
"61 316 CURVE SMOOTH",
"61 120 OFFCURVE",
"180 -10 OFFCURVE",
"361 -10 CURVE SMOOTH",
"477 -10 OFFCURVE",
"534 43 OFFCURVE",
"567 87 CURVE",
"567 81 OFFCURVE",
"567 74 OFFCURVE",
"567 68 CURVE SMOOTH",
"567 -47 OFFCURVE",
"508 -149 OFFCURVE",
"404 -240 CURVE"
);
}
);
width = 713;
}
);
unicode = 1033E;
},
{
glyphname = u1033F;
lastChange = "2017-03-01 17:35:28 +0000";
layers = (
{
anchors = (
{
name = bottom;
position = "{361, 0}";
},
{
name = bottomleft;
position = "{0, 0}";
},
{
name = top;
position = "{361, 732}";
}
);
layerId = UUID0;
paths = (
{
closed = 1;
nodes = (
"187 0 LINE",
"187 561 LINE",
"220 569 OFFCURVE",
"279 576 OFFCURVE",
"345 576 CURVE SMOOTH",
"476 576 OFFCURVE",
"557 527 OFFCURVE",
"557 369 CURVE SMOOTH",
"557 0 LINE",
"647 0 LINE",
"647 381 LINE SMOOTH",
"647 546 OFFCURVE",
"565 654 OFFCURVE",
"345 654 CURVE SMOOTH",
"251 654 OFFCURVE",
"155 638 OFFCURVE",
"97 622 CURVE",
"97 0 LINE"
);
}
);
width = 741;
}
);
unicode = 1033F;
},
{
glyphname = u10340;
lastChange = "2017-03-01 17:35:28 +0000";
layers = (
{
anchors = (
{
name = bottom;
position = "{361, 0}";
},
{
name = bottomleft;
position = "{0, 0}";
},
{
name = top;
position = "{361, 732}";
}
);
layerId = UUID0;
paths = (
{
closed = 1;
nodes = (
"187 0 LINE",
"187 567 LINE",
"543 567 LINE",
"543 0 LINE",
"633 0 LINE",
"633 646 LINE",
"97 646 LINE",
"97 0 LINE"
);
}
);
width = 731;
}
);
unicode = 10340;
},
{
glyphname = u10341;
lastChange = "2017-03-01 17:35:28 +0000";
layers = (
{
anchors = (
{
name = bottom;
position = "{332, 0}";
},
{
name = bottomleft;
position = "{0, 0}";
},
{
name = top;
position = "{361, 732}";
}
);
layerId = UUID0;
paths = (
{
closed = 1;
nodes = (
"613 -200 LINE",
"613 646 LINE",
"523 646 LINE",
"523 175 LINE",
"467 155 OFFCURVE",
"397 140 OFFCURVE",
"330 140 CURVE SMOOTH",
"222 140 OFFCURVE",
"182 208 OFFCURVE",
"182 294 CURVE SMOOTH",
"182 646 LINE",
"92 646 LINE",
"92 281 LINE SMOOTH",
"92 141 OFFCURVE",
"175 61 OFFCURVE",
"319 61 CURVE SMOOTH",
"391 61 OFFCURVE",
"462 77 OFFCURVE",
"523 100 CURVE",
"523 -240 LINE"
);
}
);
width = 710;
}
);
unicode = 10341;
},
{
glyphname = u10342;
lastChange = "2017-03-01 17:35:28 +0000";
layers = (
{
anchors = (
{
name = bottom;
position = "{390, 0}";
},
{
name = bottomleft;
position = "{0, 0}";
},
{
name = top;
position = "{258, 732}";
}
);
layerId = UUID0;
paths = (
{
closed = 1;
nodes = (
"187 -200 LINE",
"187 312 LINE",
"508 0 LINE",
"639 0 LINE",
"310 311 LINE",
"438 355 OFFCURVE",
"505 423 OFFCURVE",
"505 509 CURVE SMOOTH",
"505 592 OFFCURVE",
"446 641 OFFCURVE",
"340 671 CURVE",
"306 602 LINE",
"373 580 OFFCURVE",
"412 555 OFFCURVE",
"412 497 CURVE SMOOTH",
"412 424 OFFCURVE",
"322 375 OFFCURVE",
"187 332 CURVE",
"187 646 LINE",
"97 646 LINE",
"97 -240 LINE"
);
}
);
width = 635;
}
);
unicode = 10342;
},
{
glyphname = u10343;
lastChange = "2017-03-01 17:35:28 +0000";
layers = (
{
anchors = (
{
name = bottom;
position = "{292, 0}";
},
{
name = bottomleft;
position = "{0, 0}";
},
{
name = top;
position = "{292, 732}";
}
);
layerId = UUID0;
paths = (
{
closed = 1;
nodes = (
"430 -10 OFFCURVE",
"524 56 OFFCURVE",
"524 175 CURVE SMOOTH",
"524 296 OFFCURVE",
"428 331 OFFCURVE",
"303 358 CURVE SMOOTH",
"180 385 OFFCURVE",
"138 408 OFFCURVE",
"138 477 CURVE SMOOTH",
"138 543 OFFCURVE",
"192 579 OFFCURVE",
"291 579 CURVE SMOOTH",
"386 579 OFFCURVE",
"443 548 OFFCURVE",
"483 514 CURVE",
"529 585 LINE",
"493 617 OFFCURVE",
"422 658 OFFCURVE",
"295 658 CURVE SMOOTH",
"162 658 OFFCURVE",
"47 602 OFFCURVE",
"47 474 CURVE SMOOTH",
"47 370 OFFCURVE",
"111 321 OFFCURVE",
"241 290 CURVE SMOOTH",
"371 259 OFFCURVE",
"434 238 OFFCURVE",
"434 169 CURVE SMOOTH",
"434 109 OFFCURVE",
"390 68 OFFCURVE",
"273 68 CURVE SMOOTH",
"193 68 OFFCURVE",
"112 96 OFFCURVE",
"55 127 CURVE",
"55 38 LINE",
"109 9 OFFCURVE",
"183 -10 OFFCURVE",
"267 -10 CURVE SMOOTH"
);
}
);
width = 574;
}
);
unicode = 10343;
},
{
glyphname = u10344;
lastChange = "2017-03-01 17:35:28 +0000";
layers = (
{
anchors = (
{
name = bottom;
position = "{278, 0}";
},
{
name = bottomleft;
position = "{0, 0}";
},
{
name = top;
position = "{278, 732}";
}
);
layerId = UUID0;
paths = (
{
closed = 1;
nodes = (
"323 0 LINE",
"323 567 LINE",
"545 567 LINE",
"545 646 LINE",
"10 646 LINE",
"10 567 LINE",
"233 567 LINE",
"233 0 LINE"
);
}
);
width = 556;
}
);
unicode = 10344;
},
{
glyphname = u10345;
lastChange = "2017-03-01 17:35:28 +0000";
layers = (
{
anchors = (
{
name = bottom;
position = "{322, -196}";
},
{
name = bottomleft;
position = "{0, 0}";
},
{
name = top;
position = "{322, 732}";
}
);
layerId = UUID0;
paths = (
{
closed = 1;
nodes = (
"363 -200 LINE",
"363 155 LINE",
"631 646 LINE",
"534 646 LINE",
"318 241 LINE",
"97 646 LINE",
"-6 646 LINE",
"273 151 LINE",
"273 -240 LINE"
);
}
);
width = 626;
}
);
unicode = 10345;
},
{
glyphname = u10346;
lastChange = "2017-03-01 17:35:28 +0000";
layers = (
{
anchors = (
{
name = bottom;
position = "{351, 0}";
},
{
name = bottomleft;
position = "{0, 0}";
},
{
name = top;
position = "{302, 869}";
}
);
layerId = UUID0;
paths = (
{
closed = 1;
nodes = (
"187 -200 LINE",
"187 225 LINE",
"477 225 LINE",
"477 304 LINE",
"187 304 LINE",
"187 567 LINE",
"477 567 LINE",
"477 646 LINE",
"187 646 LINE",
"187 834 LINE",
"97 834 LINE",
"97 -240 LINE"
);
}
);
width = 507;
}
);
unicode = 10346;
},
{
glyphname = u10347;
lastChange = "2017-03-01 17:35:28 +0000";
layers = (
{
anchors = (
{
name = bottom;
position = "{292, 0}";
},
{
name = bottomleft;
position = "{0, 0}";
},
{
name = top;
position = "{291, 732}";
}
);
layerId = UUID0;
paths = (
{
closed = 1;
nodes = (
"99 0 LINE",
"291 280 LINE",
"480 0 LINE",
"587 0 LINE",
"350 338 LINE",
"571 646 LINE",
"470 646 LINE",
"294 393 LINE",
"119 646 LINE",
"15 646 LINE",
"235 336 LINE",
"-1 0 LINE"
);
}
);
width = 586;
}
);
unicode = 10347;
},
{
glyphname = u10348;
lastChange = "2017-03-01 17:35:28 +0000";
layers = (
{
anchors = (
{
name = bottom;
position = "{400, 0}";
},
{
name = bottomleft;
position = "{0, 0}";
},
{
name = top;
position = "{400, 732}";
}
);
layerId = UUID0;
paths = (
{
closed = 1;
nodes = (
"600 -10 OFFCURVE",
"720 141 OFFCURVE",
"720 323 CURVE SMOOTH",
"720 522 OFFCURVE",
"599 657 OFFCURVE",
"392 657 CURVE SMOOTH",
"201 657 OFFCURVE",
"61 524 OFFCURVE",
"61 324 CURVE SMOOTH",
"61 138 OFFCURVE",
"173 -10 OFFCURVE",
"391 -10 CURVE SMOOTH"
);
},
{
closed = 1;
nodes = (
"245 68 OFFCURVE",
"156 174 OFFCURVE",
"156 323 CURVE SMOOTH",
"156 473 OFFCURVE",
"244 578 OFFCURVE",
"392 578 CURVE SMOOTH",
"542 578 OFFCURVE",
"625 470 OFFCURVE",
"625 323 CURVE SMOOTH",
"625 174 OFFCURVE",
"543 68 OFFCURVE",
"391 68 CURVE SMOOTH"
);
},
{
closed = 1;
nodes = (
"424 256 OFFCURVE",
"453 276 OFFCURVE",
"453 324 CURVE SMOOTH",
"453 373 OFFCURVE",
"424 392 OFFCURVE",
"390 392 CURVE SMOOTH",
"356 392 OFFCURVE",
"329 373 OFFCURVE",
"329 324 CURVE SMOOTH",
"329 276 OFFCURVE",
"356 256 OFFCURVE",
"390 256 CURVE SMOOTH"
);
}
);
width = 781;
}
);
unicode = 10348;
},
{
glyphname = u10349;
lastChange = "2017-03-01 17:35:28 +0000";
layers = (
{
anchors = (
{
name = bottom;
position = "{302, 0}";
},
{
name = bottomleft;
position = "{0, 0}";
},
{
name = top;
position = "{258, 732}";
}
);
layerId = UUID0;
paths = (
{
closed = 1;
nodes = (
"86 -108 LINE",
"158 -17 OFFCURVE",
"219 58 OFFCURVE",
"268 124 CURVE",
"305 86 OFFCURVE",
"349 45 OFFCURVE",
"399 0 CURVE",
"535 0 LINE",
"447 74 OFFCURVE",
"376 136 OFFCURVE",
"319 193 CURVE",
"414 325 OFFCURVE",
"464 430 OFFCURVE",
"464 540 CURVE SMOOTH",
"464 585 OFFCURVE",
"456 617 OFFCURVE",
"445 646 CURVE",
"82 646 LINE",
"71 621 OFFCURVE",
"58 590 OFFCURVE",
"58 533 CURVE SMOOTH",
"58 417 OFFCURVE",
"94 318 OFFCURVE",
"212 184 CURVE",
"155 108 OFFCURVE",
"78 14 OFFCURVE",
"-26 -108 CURVE"
);
},
{
closed = 1;
nodes = (
"183 347 OFFCURVE",
"148 429 OFFCURVE",
"148 530 CURVE SMOOTH",
"148 545 OFFCURVE",
"149 557 OFFCURVE",
"151 568 CURVE",
"370 568 LINE",
"372 561 OFFCURVE",
"374 548 OFFCURVE",
"374 534 CURVE SMOOTH",
"374 452 OFFCURVE",
"353 382 OFFCURVE",
"263 253 CURVE"
);
}
);
width = 517;
}
);
unicode = 10349;
},
{
glyphname = u1034A;
lastChange = "2017-03-01 17:35:28 +0000";
layers = (
{
anchors = (
{
name = bottom;
position = "{229, -196}";
},
{
name = bottomleft;
position = "{0, 0}";
},
{
name = top;
position = "{229, 732}";
}
);
layerId = UUID0;
paths = (
{
closed = 1;
nodes = (
"277 -200 LINE",
"277 560 LINE",
"410 469 LINE",
"448 527 LINE",
"232 673 LINE",
"16 527 LINE",
"54 469 LINE",
"187 560 LINE",
"187 -240 LINE"
);
}
);
width = 464;
}
);
unicode = 1034A;
},
{
glyphname = u10339.dieresis;
lastChange = "2017-03-01 17:35:28 +0000";
layers = (
{
anchors = (
{
name = bottomleft;
position = "{0, 0}";
}
);
layerId = UUID0;
paths = (
{
closed = 1;
nodes = (
"187 0 LINE",
"187 646 LINE",
"97 646 LINE",
"97 0 LINE"
);
},
{
closed = 1;
nodes = (
"74 760 OFFCURVE",
"96 776 OFFCURVE",
"96 810 CURVE SMOOTH",
"96 845 OFFCURVE",
"74 859 OFFCURVE",
"49 859 CURVE SMOOTH",
"23 859 OFFCURVE",
"2 845 OFFCURVE",
"2 810 CURVE SMOOTH",
"2 776 OFFCURVE",
"23 760 OFFCURVE",
"49 760 CURVE SMOOTH"
);
},
{
closed = 1;
nodes = (
"261 760 OFFCURVE",
"283 776 OFFCURVE",
"283 810 CURVE SMOOTH",
"283 845 OFFCURVE",
"261 859 OFFCURVE",
"236 859 CURVE SMOOTH",
"211 859 OFFCURVE",
"190 845 OFFCURVE",
"190 810 CURVE SMOOTH",
"190 776 OFFCURVE",
"211 760 OFFCURVE",
"236 760 CURVE SMOOTH"
);
}
);
width = 284;
}
);
},
{
glyphname = uni0305.alt1;
lastChange = "2017-03-01 17:35:28 +0000";
layers = (
{
anchors = (
{
name = _bottomleft;
position = "{0, 0}";
}
);
layerId = UUID0;
paths = (
{
closed = 1;
nodes = (
"295 904 LINE",
"295 975 LINE",
"-5 975 LINE",
"-5 904 LINE"
);
}
);
width = 0;
}
);
note = g40;
},
{
glyphname = uni0305.alt2;
lastChange = "2017-03-01 17:35:28 +0000";
layers = (
{
anchors = (
{
name = _bottomleft;
position = "{0, 0}";
}
);
layerId = UUID0;
paths = (
{
closed = 1;
nodes = (
"762 904 LINE",
"762 975 LINE",
"-5 975 LINE",
"-5 904 LINE"
);
}
);
width = 0;
}
);
note = g41;
},
{
glyphname = uni0305.alt3;
lastChange = "2017-03-01 17:35:28 +0000";
layers = (
{
anchors = (
{
name = _bottomleft;
position = "{0, 0}";
}
);
layerId = UUID0;
paths = (
{
closed = 1;
nodes = (
"908 904 LINE",
"908 975 LINE",
"-5 975 LINE",
"-5 904 LINE"
);
}
);
width = 0;
}
);
note = g42;
},
